<svg xml:space="preserve" viewBox="0 0 100 100" y="0" x="0" xmlns="http://www.w3.org/2000/svg" id="construction_1" version="1.1" width="200px" height="200px" xmlns:xlink="http://www.w3.org/1999/xlink" style="width:100%;height:100%;background-size:initial;background-repeat-y:initial;background-repeat-x:initial;background-position-y:initial;background-position-x:initial;background-origin:initial;background-image:initial;background-color:rgba(255, 255, 255,0);background-clip:initial;background-attachment:initial;animation-play-state:paused">
	<g class="ldl-scale" style="transform-origin:50% 50%;transform:rotate(0deg) scale(1, 1);animation-play-state:paused">
		<path fill="#f5e6c8" d="M86.473 41.484L58.516 13.527C56.164 11.176 53.082 10 50 10s-6.164 1.176-8.516 3.527L13.527 41.484c-4.703 4.703-4.703 12.328 0 17.032l27.957 27.957C43.836 88.824 46.918 90 50 90s6.164-1.176 8.516-3.527l27.957-27.957c4.703-4.703 4.703-12.329 0-17.032z" style="fill:rgb(245, 230, 200);animation-play-state:paused">
		</path>
		<path fill="#e15b64" d="M59.048 11.248C56.549 8.749 53.275 7.5 50 7.5s-6.549 1.249-9.048 3.748L11.248 40.952c-4.997 4.997-4.997 13.099 0 18.096l29.704 29.704C43.451 91.251 46.725 92.5 50 92.5s6.549-1.249 9.048-3.748l29.704-29.704c4.997-4.997 4.997-13.099 0-18.096L59.048 11.248zm25.949 44.045L72.762 67.527c-.854-1.066-1.734-2.112-2.248-3.368-.41-1.003-.58-2.124-1.219-2.999-.282-.386-.643-.706-1.02-.999-1.099-.856-2.543-1.534-3.855-1.068-.609.216-1.109.654-1.593 1.081-.648.573-.852.975-1.413 2.098s-2.069 3.192-3.757 3.239c-1.689.046-4.499 2.305-4.24 4.667.011.101.032.203.059.303h16.332L55.293 84.997A7.435 7.435 0 0 1 50 87.189c-2 0-3.879-.779-5.293-2.192L28.552 68.841l7.751-7.424c.224-.135.4-.337.503-.577l3.158-7.361 4.021 5.341c.079.104.14.221.183.344l3.456 10.044a1.887 1.887 0 0 0 1.784 1.273h1.567a.925.925 0 0 0 .907-1.106c-.61-3.072-2.482-11.466-2.482-11.466l-.087-.253-3.448-7.317a.535.535 0 0 1-.018-.412l.394-1.067 6.314 1.974.524.685c.375.5 1.1.566 1.559.141l.141-.131 2.483.776-.633 1.856c-.415 1.218.306 2.55 1.563 2.822 4.402.952 8.176.185 8.924-2.01.748-2.195-1.769-5.108-5.835-7.043-1.162-.553-2.549.062-2.964 1.28l-.661 1.938-2.303-.72a1.029 1.029 0 0 0-.107-.391s-3.041-5.629-3.072-5.765l-1.626-7.069-.003.001.002-.005c-.798-1.068-1.676-1.919-2.627-2.573 1.676-.511 3.176-2.061 3.807-4.175.909-3.05-.498-5.291-2.945-6.021-2.447-.73-5.006.329-5.916 3.379-.581 1.949-.279 3.9.651 5.247-1.122-.1-2.31-.025-3.564.231l-7.623 2.128a.535.535 0 0 0-.334.276l-3.208 6.434-4.349-1.442-.365 1.166 4.162 1.383-.027.054a1.295 1.295 0 0 0 .715 1.795l.024.009a1.294 1.294 0 0 0 1.568-.574l.277-.485 4.656 1.456-1.838 4.979-1.276 7.027a1.249 1.249 0 0 1-.502.792s-3.891 4.56-6.369 7.469L15.003 55.293c-2.918-2.918-2.918-7.667 0-10.585l29.704-29.704A7.435 7.435 0 0 1 50 12.812c2 0 3.879.779 5.293 2.192l29.704 29.704c2.918 2.918 2.918 7.666 0 10.585zM35.873 44.338l-4.459-1.394 2.25-3.94a.538.538 0 0 1 .333-.253l4.339-1.086-2.463 6.673zm10.792 3.374l1.534-4.154.594 2.267c.021.081 1.319 1.8 2.481 3.327l-4.609-1.44z" style="fill:rgb(225, 91, 100);animation-play-state:paused">
		</path>
		<metadata xmlns:d="https://loading.io/stock/" style="animation-play-state:paused">
			<name style="animation-play-state:paused">
				under construction
			</name>
			<tags style="animation-play-state:paused">
				mining,fix,build,work,mine,shovel,under construction,business
			</tags>
			<license style="animation-play-state:paused">
				pro
			</license>
			<slug style="animation-play-state:paused">
				1kgpjr
			</slug>
		</metadata>
	</g>
	<!-- generated by https://loading.io/ -->
</svg>
